:SAMPLES-PER-SECOND 30
:FULLY-SPECIFIED
:DEGREES
156
root  96.825 37.4848 1.07178 82.1654 86.5716 85.9638
RightUpLeg  13.901 -1.82006 -5.72515
RightLeg  34.7861 15.2677 4.17054
RightFoot  7.66791 -1.38095 7.5763
RightToes  -4.65663e-010 -1.59028e-015 9.93923e-017
Spine  -0.0758259 1.7088 -8.06711
Spine1  8.81722 0.18398 5.64619
HEad  -16.9416 -2.46604 0.729243
LeftShoulder1  9.93923e-017 0 1.22299e-017
LeftArm  -16.7259 61.144 -67.4438
LeftForeArm  -2.71126 -3.1796 -3.66495
LeftHand  1.16614 9.31052 -7.37771
RightShoulder  1.98785e-016 -4.96962e-017 1.55301e-017
RightArm  28.1705 -17.9366 86.8648
RightForeArm  -42.2436 25.2166 -23.6747
RightHand  1.69715 -12.0074 -11.6471
LeftUpLeg  -23.5558 -14.3937 -4.00681
LeftLeg  18.9642 2.54266 4.17326
LeftFoot  7.37099 -0.061146 0.474394
LeftToes  3.34876e-009 -9.68256e-011 -6.12847e-011
157
root  98.3348 37.3319 0.898487 73.774 84.9221 77.8903
RightUpLeg  8.61957 -0.799369 -7.83632
RightLeg  45.0401 13.693 3.90294
RightFoot  20.4166 -2.2745 7.58485
RightToes  -4.65663e-010 -1.59028e-015 9.93923e-017
Spine  3.60372 2.00135 -11.8147
Spine1  5.45786 -0.57511 7.72815
HEad  -17.1382 -0.916955 -0.764969
LeftShoulder1  9.93923e-017 0 1.22299e-017
LeftArm  -20.1021 58.7216 -72.9747
LeftForeArm  -2.2802 -4.40642 -3.76672
LeftHand  1.0967 8.44741 -7.88573
RightShoulder  1.98785e-016 -4.96962e-017 1.55301e-017
RightArm  36.3851 -22.9815 87.8495
RightForeArm  -49.0141 21.2224 -20.7231
RightHand  1.59698 -11.9609 -9.86209
LeftUpLeg  -22.7259 -14.3297 -6.46045
LeftLeg  23.4747 2.84892 5.74606
LeftFoot  3.01147 -0.231796 1.68478
LeftToes  3.34876e-009 -9.68256e-011 -6.12847e-011
158
root  99.8487 37.3296 0.826331 70.4516 83.7534 74.6617
RightUpLeg  2.63321 0.569355 -8.54628
RightLeg  53.1402 10.584 0.307122
RightFoot  27.0358 -3.66393 9.98033
RightToes  -4.65663e-010 -1.59028e-015 9.93923e-017
Spine  5.77014 2.01758 -16.1346
Spine1  3.2964 -1.88559 11.0539
HEad  -16.5329 1.47762 -2.33244
LeftShoulder1  9.93923e-017 0 1.22299e-017
LeftArm  -22.5656 55.3104 -78.4901
LeftForeArm  -1.88122 -6.52028 -3.47748
LeftHand  1.03978 7.62622 -7.54957
RightShoulder  1.98785e-016 -4.96962e-017 1.55301e-017
RightArm  32.2836 -27.0501 87.7874
RightForeArm  -41.9057 19.4045 -10.8211
RightHand  1.49552 -11.8648 -8.15638
LeftUpLeg  -21.0446 -13.4844 -8.26488
LeftLeg  25.9869 2.44905 6.42091
LeftFoot  -0.806576 -0.19665 1.74372
LeftToes  3.34876e-009 -9.68256e-011 -6.12847e-011
159
root  101.538 37.6179 0.787364 74.1643 83.7422 78.5981
RightUpLeg  -2.41053 0.584095 -8.14518
RightLeg  57.9229 8.56773 -3.28171
RightFoot  25.573 -4.02736 11.5564
RightToes  -4.65663e-010 -1.59028e-015 9.93923e-017
Spine  6.3915 1.2017 -19.9243
Spine1  2.42586 -3.87589 15.303
HEad  -15.7934 3.75132 -3.80517
LeftShoulder1  9.93923e-017 0 1.22299e-017
LeftArm  -20.4448 51.3873 -82.7477
LeftForeArm  -8.08384 -11.0607 -2.16726
LeftHand  1.13289 9.13914 -8.51138
RightShoulder  1.98785e-016 -4.96962e-017 1.55301e-017
RightArm  28.7657 -30.7761 86.8603
RightForeArm  -34.3035 16.5332 -1.12014
RightHand  1.41723 -11.9772 -6.23863
LeftUpLeg  -17.6917 -12.8131 -9.10226
LeftLeg  25.9454 1.63188 5.96156
LeftFoot  -3.41072 -0.136075 1.42876
LeftToes  3.34876e-009 -9.68256e-011 -6.12847e-011
160
root  103.273 38.0935 0.717646 90.5337 84.791 95.2286
RightUpLeg  -6.13101 -1.03762 -6.67864
RightLeg  59.7251 9.27574 -2.18589
RightFoot  22.4015 -0.732527 2.16952
RightToes  -4.65663e-010 -1.59028e-015 9.93923e-017
Spine  7.52937 0.21202 -22.2364
Spine1  0.682082 -5.7202 20.1668
HEad  -15.1853 5.30308 -4.73401
LeftShoulder1  9.93923e-017 0 1.22299e-017
LeftArm  -8.45775 47.5888 -86.0126
LeftForeArm  -22.0317 -18.0026 2.95848
LeftHand  1.17725 9.4041 -7.68344
RightShoulder  1.98785e-016 -4.96962e-017 1.55301e-017
RightArm  21.522 -35.6123 83.5564
RightForeArm  -21.3333 14.0219 2.05888
RightHand  1.33553 -12.2628 -3.90187
LeftUpLeg  -13.2623 -12.6183 -8.96101
LeftLeg  23.8159 0.394975 4.92659
LeftFoot  -5.08469 -0.127658 1.54911
LeftToes  3.34876e-009 -9.68256e-011 -6.12847e-011
161
root  104.967 38.4695 0.674174 115.345 85.5027 119.955
RightUpLeg  -9.68713 -2.46273 -4.58872
RightLeg  59.8795 11.3026 1.62389
RightFoot  21.2993 5.14317 -16.3994
RightToes  -4.65663e-010 -1.59028e-015 9.93923e-017
Spine  9.07513 -0.664647 -24.8575
Spine1  -1.82291 -7.42722 26.2181
HEad  -14.5394 7.87069 -4.92005
LeftShoulder1  9.93923e-017 0 1.22299e-017
LeftArm  7.3484 44.9127 -88.8676
LeftForeArm  -35.8533 -23.6174 14.1622
LeftHand  0.807002 5.42119 -4.2222
RightShoulder  1.98785e-016 -4.96962e-017 1.55301e-017
RightArm  20.4077 -41.2066 78.0422
RightForeArm  -13.4982 13.0226 2.62186
RightHand  1.29813 -12.4226 -2.79637
LeftUpLeg  -9.43363 -11.4859 -8.45468
LeftLeg  21.6613 -2.05118 4.25651
LeftFoot  -6.62405 -0.132054 1.90054
LeftToes  3.34876e-009 -9.68256e-011 -6.12847e-011
162
root  106.706 38.6827 0.698818 136.621 85.5534 141.013
RightUpLeg  -13.3939 -2.86963 -2.61144
RightLeg  57.8533 11.7723 2.38838
RightFoot  19.0216 7.8747 -26.9208
RightToes  -4.65663e-010 -1.59028e-015 9.93923e-017
Spine  10.5276 -1.23652 -27.9811
Spine1  -4.28088 -8.7084 32.6365
HEad  -13.5618 9.99567 -6.33357
LeftShoulder1  9.93923e-017 0 1.22299e-017
LeftArm  5.12398 42.4864 -89.576
LeftForeArm  -37.0117 -30.2883 19.5816
LeftHand  0.899451 5.97984 -4.82718
RightShoulder  1.98785e-016 -4.96962e-017 1.55301e-017
RightArm  30.139 -46.3999 70.734
RightForeArm  -17.6102 14.1185 1.6356
RightHand  1.33581 -12.3798 -3.60746
LeftUpLeg  -6.26664 -8.47238 -7.74033
LeftLeg  20.3346 -6.0037 3.85411
LeftFoot  -8.32049 -0.123155 2.22942
LeftToes  3.34876e-009 -9.68256e-011 -6.12847e-011
163
root  108.326 38.9918 0.6973 158.488 84.9232 163.008
RightUpLeg  -15.8954 -3.79198 -0.735664
RightLeg  52.293 11.2489 1.33326
RightFoot  17.0938 9.27411 -33.471
RightToes  -4.65663e-010 -1.59028e-015 9.93923e-017
Spine  12.2643 -1.86512 -30.1037
Spine1  -6.00315 -9.86522 38.5586
HEad  -12.1234 10.2571 -8.29024
LeftShoulder1  9.93923e-017 0 1.22299e-017
LeftArm  -0.634912 39.9495 -88.9733
LeftForeArm  -43.6156 -37.6209 22.4743
LeftHand  1.25579 8.25087 10.3421
RightShoulder  1.98785e-016 -4.96962e-017 1.55301e-017
RightArm  46.6512 -50.1382 62.3727
RightForeArm  -30.1628 16.445 -0.936722
RightHand  1.35228 -12.1889 -4.38608
LeftUpLeg  -2.42168 -5.52365 -6.15046
LeftLeg  17.6902 -9.98567 3.11039
LeftFoot  -8.71815 -0.118982 2.24571
LeftToes  3.34876e-009 -9.68256e-011 -6.12847e-011
